<mxfile host="app.diagrams.net" modified="2023-02-04T14:55:53.536Z" agent="5.0 (X11)" version="20.8.5" etag="flHMLzVq3Ciju3S4_cDR" type="github">
  <diagram id="lekWpjrkeB-izY3poKi2" name="Page-1">
    <mxGraphModel dx="1194" dy="642" grid="1" gridSize="10" guides="1" tooltips="1" connect="1" arrows="1" fold="1" page="1" pageScale="1" pageWidth="850" pageHeight="1100" math="0" shadow="0">
      <root>
        <mxCell id="0" />
        <mxCell id="1" parent="0" />
        <mxCell id="V-MkPdUyoJsD-3wPg3Aa-1" value="&lt;h1&gt;Order Transaction Flow&lt;br&gt;&lt;/h1&gt;&lt;p&gt;The course purchase order will initiate a new transaction for individual course/ user-class at the time of checkout with batch payment.&lt;br&gt;&lt;/p&gt;" style="text;html=1;strokeColor=none;fillColor=none;spacing=5;spacingTop=-20;whiteSpace=wrap;overflow=hidden;rounded=0;" vertex="1" parent="1">
          <mxGeometry x="20" y="10" width="400" height="90" as="geometry" />
        </mxCell>
        <mxCell id="V-MkPdUyoJsD-3wPg3Aa-9" style="edgeStyle=orthogonalEdgeStyle;rounded=0;orthogonalLoop=1;jettySize=auto;html=1;fontSize=16;startArrow=classic;startFill=1;" edge="1" parent="1" source="V-MkPdUyoJsD-3wPg3Aa-2" target="V-MkPdUyoJsD-3wPg3Aa-3">
          <mxGeometry relative="1" as="geometry" />
        </mxCell>
        <mxCell id="V-MkPdUyoJsD-3wPg3Aa-2" value="&lt;font style=&quot;font-size: 16px;&quot;&gt;&lt;b&gt;Order Checkout &lt;br&gt;&lt;/b&gt;&lt;/font&gt;" style="rounded=1;whiteSpace=wrap;html=1;" vertex="1" parent="1">
          <mxGeometry x="70" y="140" width="120" height="60" as="geometry" />
        </mxCell>
        <mxCell id="V-MkPdUyoJsD-3wPg3Aa-6" style="edgeStyle=orthogonalEdgeStyle;rounded=0;orthogonalLoop=1;jettySize=auto;html=1;entryX=0.467;entryY=0.2;entryDx=0;entryDy=0;entryPerimeter=0;fontSize=16;startArrow=classic;startFill=1;strokeColor=none;" edge="1" parent="1" source="V-MkPdUyoJsD-3wPg3Aa-3" target="V-MkPdUyoJsD-3wPg3Aa-5">
          <mxGeometry relative="1" as="geometry" />
        </mxCell>
        <mxCell id="V-MkPdUyoJsD-3wPg3Aa-8" style="edgeStyle=orthogonalEdgeStyle;rounded=0;orthogonalLoop=1;jettySize=auto;html=1;fontSize=16;startArrow=classic;startFill=1;" edge="1" parent="1" source="V-MkPdUyoJsD-3wPg3Aa-3" target="V-MkPdUyoJsD-3wPg3Aa-5">
          <mxGeometry relative="1" as="geometry" />
        </mxCell>
        <mxCell id="V-MkPdUyoJsD-3wPg3Aa-11" style="edgeStyle=orthogonalEdgeStyle;rounded=0;orthogonalLoop=1;jettySize=auto;html=1;entryX=0.5;entryY=1;entryDx=0;entryDy=0;fontSize=16;startArrow=classic;startFill=1;" edge="1" parent="1" source="V-MkPdUyoJsD-3wPg3Aa-3" target="V-MkPdUyoJsD-3wPg3Aa-7">
          <mxGeometry relative="1" as="geometry" />
        </mxCell>
        <mxCell id="V-MkPdUyoJsD-3wPg3Aa-3" value="&lt;b&gt;Payload Items from cart with Sale Price&lt;/b&gt;&lt;font style=&quot;font-size: 16px;&quot;&gt;&lt;b&gt;&lt;br&gt;&lt;/b&gt;&lt;/font&gt;" style="rounded=1;whiteSpace=wrap;html=1;" vertex="1" parent="1">
          <mxGeometry x="290" y="210" width="120" height="60" as="geometry" />
        </mxCell>
        <mxCell id="V-MkPdUyoJsD-3wPg3Aa-15" style="edgeStyle=orthogonalEdgeStyle;rounded=0;orthogonalLoop=1;jettySize=auto;html=1;entryX=0;entryY=0.5;entryDx=0;entryDy=0;fontSize=16;startArrow=classic;startFill=1;" edge="1" parent="1" source="V-MkPdUyoJsD-3wPg3Aa-5" target="V-MkPdUyoJsD-3wPg3Aa-14">
          <mxGeometry relative="1" as="geometry" />
        </mxCell>
        <mxCell id="V-MkPdUyoJsD-3wPg3Aa-20" style="edgeStyle=orthogonalEdgeStyle;rounded=0;orthogonalLoop=1;jettySize=auto;html=1;fontSize=16;startArrow=none;startFill=0;exitX=0.48;exitY=0.98;exitDx=0;exitDy=0;exitPerimeter=0;entryX=0;entryY=0.5;entryDx=0;entryDy=0;" edge="1" parent="1" source="V-MkPdUyoJsD-3wPg3Aa-5" target="V-MkPdUyoJsD-3wPg3Aa-22">
          <mxGeometry relative="1" as="geometry">
            <mxPoint x="490" y="670" as="targetPoint" />
            <mxPoint x="230" y="550" as="sourcePoint" />
            <Array as="points">
              <mxPoint x="234" y="550" />
              <mxPoint x="370" y="550" />
              <mxPoint x="370" y="680" />
            </Array>
          </mxGeometry>
        </mxCell>
        <mxCell id="V-MkPdUyoJsD-3wPg3Aa-5" value="Make Batch Payment &lt;br&gt;Through Payment Gateway" style="ellipse;shape=cloud;whiteSpace=wrap;html=1;fontSize=16;" vertex="1" parent="1">
          <mxGeometry x="90" y="390" width="300" height="100" as="geometry" />
        </mxCell>
        <mxCell id="V-MkPdUyoJsD-3wPg3Aa-7" value="&lt;font style=&quot;font-size: 14px;&quot;&gt;User Selected Course listed Price+Tax+Gateway charge&lt;/font&gt;" style="ellipse;whiteSpace=wrap;html=1;fontSize=16;dashed=1;dashPattern=8 8;" vertex="1" parent="1">
          <mxGeometry x="470" y="130" width="190" height="90" as="geometry" />
        </mxCell>
        <mxCell id="V-MkPdUyoJsD-3wPg3Aa-10" value="" style="shape=image;html=1;verticalAlign=top;verticalLabelPosition=bottom;labelBackgroundColor=#ffffff;imageAspect=0;aspect=fixed;image=https://cdn3.iconfinder.com/data/icons/payment-method-1/64/_Paypal-39-128.png;fontSize=16;" vertex="1" parent="1">
          <mxGeometry x="110" y="310" width="118" height="118" as="geometry" />
        </mxCell>
        <mxCell id="V-MkPdUyoJsD-3wPg3Aa-16" style="edgeStyle=orthogonalEdgeStyle;rounded=0;orthogonalLoop=1;jettySize=auto;html=1;fontSize=16;startArrow=none;startFill=0;entryX=0.894;entryY=0.367;entryDx=0;entryDy=0;entryPerimeter=0;" edge="1" parent="1" source="V-MkPdUyoJsD-3wPg3Aa-14" target="V-MkPdUyoJsD-3wPg3Aa-22">
          <mxGeometry relative="1" as="geometry">
            <mxPoint x="710" y="630" as="targetPoint" />
            <Array as="points">
              <mxPoint x="673" y="440" />
            </Array>
          </mxGeometry>
        </mxCell>
        <mxCell id="V-MkPdUyoJsD-3wPg3Aa-18" style="edgeStyle=orthogonalEdgeStyle;rounded=0;orthogonalLoop=1;jettySize=auto;html=1;fontSize=16;startArrow=none;startFill=0;entryX=0.338;entryY=0.15;entryDx=0;entryDy=0;entryPerimeter=0;" edge="1" parent="1" source="V-MkPdUyoJsD-3wPg3Aa-14" target="V-MkPdUyoJsD-3wPg3Aa-22">
          <mxGeometry relative="1" as="geometry">
            <mxPoint x="555" y="630" as="targetPoint" />
          </mxGeometry>
        </mxCell>
        <mxCell id="V-MkPdUyoJsD-3wPg3Aa-14" value="Check and Confirm &lt;br&gt;the Payment?" style="rhombus;whiteSpace=wrap;html=1;fontSize=16;dashed=1;" vertex="1" parent="1">
          <mxGeometry x="460" y="370" width="190" height="140" as="geometry" />
        </mxCell>
        <mxCell id="V-MkPdUyoJsD-3wPg3Aa-17" value="Not Success" style="text;html=1;align=center;verticalAlign=middle;resizable=0;points=[];autosize=1;strokeColor=none;fillColor=none;fontSize=16;" vertex="1" parent="1">
          <mxGeometry x="670" y="530" width="110" height="30" as="geometry" />
        </mxCell>
        <mxCell id="V-MkPdUyoJsD-3wPg3Aa-19" value="Success" style="text;html=1;align=center;verticalAlign=middle;resizable=0;points=[];autosize=1;strokeColor=none;fillColor=none;fontSize=16;" vertex="1" parent="1">
          <mxGeometry x="470" y="540" width="80" height="30" as="geometry" />
        </mxCell>
        <mxCell id="V-MkPdUyoJsD-3wPg3Aa-21" value="Payment Callback(Optional)" style="text;html=1;align=center;verticalAlign=middle;resizable=0;points=[];autosize=1;strokeColor=none;fillColor=none;fontSize=16;" vertex="1" parent="1">
          <mxGeometry x="145" y="560" width="220" height="30" as="geometry" />
        </mxCell>
        <mxCell id="V-MkPdUyoJsD-3wPg3Aa-23" style="edgeStyle=orthogonalEdgeStyle;rounded=0;orthogonalLoop=1;jettySize=auto;html=1;fontSize=16;startArrow=none;startFill=0;" edge="1" parent="1" source="V-MkPdUyoJsD-3wPg3Aa-22">
          <mxGeometry relative="1" as="geometry">
            <mxPoint x="560" y="870" as="targetPoint" />
          </mxGeometry>
        </mxCell>
        <mxCell id="V-MkPdUyoJsD-3wPg3Aa-25" style="edgeStyle=orthogonalEdgeStyle;rounded=0;orthogonalLoop=1;jettySize=auto;html=1;fontSize=16;startArrow=none;startFill=0;" edge="1" parent="1" source="V-MkPdUyoJsD-3wPg3Aa-22">
          <mxGeometry relative="1" as="geometry">
            <mxPoint x="750" y="870" as="targetPoint" />
          </mxGeometry>
        </mxCell>
        <mxCell id="V-MkPdUyoJsD-3wPg3Aa-22" value="Verify the &lt;br&gt;Payment Status" style="rhombus;whiteSpace=wrap;html=1;fontSize=16;dashed=1;" vertex="1" parent="1">
          <mxGeometry x="530" y="620" width="160" height="120" as="geometry" />
        </mxCell>
        <mxCell id="V-MkPdUyoJsD-3wPg3Aa-24" value="Matched" style="text;html=1;align=center;verticalAlign=middle;resizable=0;points=[];autosize=1;strokeColor=none;fillColor=none;fontSize=16;" vertex="1" parent="1">
          <mxGeometry x="530" y="765" width="80" height="30" as="geometry" />
        </mxCell>
        <mxCell id="V-MkPdUyoJsD-3wPg3Aa-26" value="Unmatched" style="text;html=1;align=center;verticalAlign=middle;resizable=0;points=[];autosize=1;strokeColor=none;fillColor=none;fontSize=16;" vertex="1" parent="1">
          <mxGeometry x="740" y="765" width="100" height="30" as="geometry" />
        </mxCell>
        <mxCell id="V-MkPdUyoJsD-3wPg3Aa-28" value="" style="rounded=0;whiteSpace=wrap;html=1;fontSize=16;dashed=1;dashPattern=8 8;" vertex="1" parent="1">
          <mxGeometry x="400" y="880" width="380" height="150" as="geometry" />
        </mxCell>
        <mxCell id="V-MkPdUyoJsD-3wPg3Aa-29" value="Create Transaction Entry for Course-1" style="rounded=1;whiteSpace=wrap;html=1;fontSize=16;" vertex="1" parent="1">
          <mxGeometry x="410" y="900" width="180" height="50" as="geometry" />
        </mxCell>
        <mxCell id="V-MkPdUyoJsD-3wPg3Aa-30" value="Create Transaction Entry for Course-2" style="rounded=1;whiteSpace=wrap;html=1;fontSize=16;" vertex="1" parent="1">
          <mxGeometry x="560" y="930" width="180" height="50" as="geometry" />
        </mxCell>
        <mxCell id="V-MkPdUyoJsD-3wPg3Aa-31" value="..... for other" style="rounded=1;whiteSpace=wrap;html=1;fontSize=16;" vertex="1" parent="1">
          <mxGeometry x="630" y="990" width="160" height="30" as="geometry" />
        </mxCell>
        <mxCell id="V-MkPdUyoJsD-3wPg3Aa-37" style="edgeStyle=orthogonalEdgeStyle;rounded=0;orthogonalLoop=1;jettySize=auto;html=1;fontSize=16;startArrow=classic;startFill=1;" edge="1" parent="1" source="V-MkPdUyoJsD-3wPg3Aa-33" target="V-MkPdUyoJsD-3wPg3Aa-28">
          <mxGeometry relative="1" as="geometry" />
        </mxCell>
        <mxCell id="V-MkPdUyoJsD-3wPg3Aa-33" value="Update the Transaction Info on Quickbook" style="rounded=1;whiteSpace=wrap;html=1;fontSize=16;" vertex="1" parent="1">
          <mxGeometry x="80" y="917.5" width="225" height="75" as="geometry" />
        </mxCell>
        <mxCell id="V-MkPdUyoJsD-3wPg3Aa-36" style="edgeStyle=orthogonalEdgeStyle;rounded=0;orthogonalLoop=1;jettySize=auto;html=1;entryX=0.139;entryY=0.007;entryDx=0;entryDy=0;entryPerimeter=0;fontSize=16;startArrow=classic;startFill=1;" edge="1" parent="1" source="V-MkPdUyoJsD-3wPg3Aa-34" target="V-MkPdUyoJsD-3wPg3Aa-28">
          <mxGeometry relative="1" as="geometry" />
        </mxCell>
        <mxCell id="V-MkPdUyoJsD-3wPg3Aa-34" value="Create a Purchase Order" style="rounded=1;whiteSpace=wrap;html=1;fontSize=16;" vertex="1" parent="1">
          <mxGeometry x="80" y="790" width="225" height="75" as="geometry" />
        </mxCell>
        <mxCell id="V-MkPdUyoJsD-3wPg3Aa-35" value="" style="shape=image;verticalLabelPosition=bottom;labelBackgroundColor=default;verticalAlign=top;aspect=fixed;imageAspect=0;image=http://designsystem.quickbooks.com/wp-content/uploads/2022/09/qb-logo-horizontal-preferred.svg;" vertex="1" parent="1">
          <mxGeometry x="50" y="705" width="267.88" height="85" as="geometry" />
        </mxCell>
        <mxCell id="V-MkPdUyoJsD-3wPg3Aa-38" value="&lt;font style=&quot;font-size: 13px;&quot;&gt;Transaction Helper&lt;/font&gt;" style="rounded=1;whiteSpace=wrap;html=1;fontSize=16;fillColor=#d5e8d4;strokeColor=#82b366;" vertex="1" parent="1">
          <mxGeometry x="590" y="850" width="130" height="40" as="geometry" />
        </mxCell>
      </root>
    </mxGraphModel>
  </diagram>
</mxfile>
